<svg width="2000" height="1200" viewBox="0 0 2000 1200" fill="none" xmlns="http://www.w3.org/2000/svg">
  <title>ARCONT Round 2 - Grid Span</title>
  <defs>
    <linearGradient id="spanBody" x1="138" y1="84" x2="593" y2="556" gradientUnits="userSpaceOnUse">
      <stop stop-color="#1A466E"/>
      <stop offset="1" stop-color="#0B1F33"/>
    </linearGradient>
  </defs>

  <g transform="translate(110 145)">
    <path d="M356 38L632 542H506L434 410H278L206 542H80L356 38Z" fill="url(#spanBody)"/>
    <path d="M356 142L451 320H384V526H329V320H262L356 142Z" fill="#F9FBFE"/>
    <g stroke="#B5C8DA" stroke-width="5" stroke-opacity="0.34">
      <line x1="193" y1="447" x2="521" y2="447"/>
      <line x1="228" y1="382" x2="486" y2="382"/>
      <line x1="260" y1="317" x2="453" y2="317"/>
      <line x1="290" y1="252" x2="422" y2="252"/>
      <line x1="356" y1="104" x2="356" y2="542"/>
      <line x1="298" y1="197" x2="298" y2="542"/>
      <line x1="414" y1="197" x2="414" y2="542"/>
    </g>
    <path d="M356 38L632 542H506L434 410H278L206 542H80L356 38Z" stroke="#E4ECF5" stroke-opacity="0.2" stroke-width="8"/>
    <path d="M166 480L546 160" stroke="#F97316" stroke-width="14" stroke-linecap="round" stroke-opacity="0.96"/>
    <circle cx="546" cy="160" r="18" fill="#F97316"/>
    <circle cx="166" cy="480" r="18" fill="#F97316"/>
    <circle cx="356" cy="320" r="15" fill="#FDBA74"/>
  </g>

  <g transform="translate(770 338)">
    <text x="0" y="0" fill="#0E2339" font-family="Avenir Next, Helvetica Neue, Arial, sans-serif" font-size="222" font-weight="800" letter-spacing="6">ARCONT</text>
    <rect x="8" y="72" width="510" height="12" rx="6" fill="#F97316"/>
    <text x="12" y="162" fill="#516376" font-family="Avenir Next, Helvetica Neue, Arial, sans-serif" font-size="56" font-weight="700" letter-spacing="10">CONTROL GARANTIZADO</text>
  </g>
</svg>
