<svg width="2000" height="1200" viewBox="0 0 2000 1200" fill="none" xmlns="http://www.w3.org/2000/svg">
  <title>ARCONT Round 5 - Keystone Portal</title>
  <defs>
    <linearGradient id="portalBase" x1="118" y1="118" x2="590" y2="548" gradientUnits="userSpaceOnUse">
      <stop stop-color="#122F4F"/>
      <stop offset="1" stop-color="#09192B"/>
    </linearGradient>
  </defs>

  <g transform="translate(116 148)">
    <path d="M180 548V314C180 180 258 100 356 100C454 100 532 180 532 314V548H444V320C444 238 408 196 356 196C304 196 268 238 268 320V548H180Z" stroke="url(#portalBase)" stroke-width="56" stroke-linecap="round" stroke-linejoin="round"/>
    <path d="M356 124L392 170L356 214L320 170L356 124Z" fill="#F97316"/>
    <path d="M356 246V548" stroke="#D9E4EF" stroke-width="28" stroke-linecap="round"/>
    <path d="M276 356H436" stroke="#F97316" stroke-width="18" stroke-linecap="round"/>
    <path d="M248 548H464" stroke="#0C2036" stroke-width="18" stroke-linecap="round" opacity="0.12"/>
  </g>

  <g transform="translate(760 344)">
    <text x="0" y="0" fill="#0C2036" font-family="Avenir Next, Helvetica Neue, Arial, sans-serif" font-size="224" font-weight="800" letter-spacing="5">ARCONT</text>
    <rect x="8" y="72" width="210" height="10" rx="5" fill="#F97316"/>
    <text x="12" y="160" fill="#5D6F82" font-family="Avenir Next, Helvetica Neue, Arial, sans-serif" font-size="52" font-weight="600" letter-spacing="9">CONTROL GARANTIZADO</text>
  </g>
</svg>
