<svg width="2000" height="1200" viewBox="0 0 2000 1200" fill="none" xmlns="http://www.w3.org/2000/svg">
  <title>ARCONT Logo Concept 01 - Precision Grid</title>
  <defs>
    <linearGradient id="gradA" x1="180" y1="170" x2="610" y2="610" gradientUnits="userSpaceOnUse">
      <stop stop-color="#153A63"/>
      <stop offset="1" stop-color="#0B1F33"/>
    </linearGradient>
    <linearGradient id="accentA" x1="260" y1="250" x2="540" y2="520" gradientUnits="userSpaceOnUse">
      <stop stop-color="#F97316"/>
      <stop offset="1" stop-color="#FB923C"/>
    </linearGradient>
  </defs>

  <g transform="translate(110 150)">
    <path d="M340 0L620 520H505L431 386H249L176 520H60L340 0Z" fill="url(#gradA)"/>
    <path d="M340 126L454 340H356V510H324V340H226L340 126Z" fill="white" fill-opacity="0.95"/>
    <path d="M340 126L454 340H356V510H324V340H226L340 126Z" stroke="#D9E2EC" stroke-width="8"/>
    <path d="M340 0L620 520H505L431 386H249L176 520H60L340 0Z" stroke="#D9E2EC" stroke-opacity="0.18" stroke-width="8"/>

    <g stroke="#84A7C7" stroke-opacity="0.28" stroke-width="4">
      <line x1="146" y1="452" x2="533" y2="452"/>
      <line x1="184" y1="386" x2="493" y2="386"/>
      <line x1="226" y1="312" x2="452" y2="312"/>
      <line x1="270" y1="236" x2="412" y2="236"/>
      <line x1="340" y1="70" x2="340" y2="520"/>
      <line x1="281" y1="176" x2="281" y2="520"/>
      <line x1="399" y1="176" x2="399" y2="520"/>
    </g>

    <g fill="url(#accentA)">
      <circle cx="340" cy="70" r="16"/>
      <circle cx="399" cy="236" r="12"/>
      <circle cx="281" cy="236" r="12"/>
      <circle cx="184" cy="386" r="12"/>
      <circle cx="493" cy="386" r="12"/>
    </g>
  </g>

  <g transform="translate(760 340)">
    <text x="0" y="0" fill="#0E2238" font-family="Avenir Next, Helvetica Neue, Arial, sans-serif" font-size="218" font-weight="800" letter-spacing="6">ARCONT</text>
    <rect x="8" y="72" width="610" height="12" rx="6" fill="#F97316"/>
    <text x="12" y="160" fill="#5A6B7D" font-family="Avenir Next, Helvetica Neue, Arial, sans-serif" font-size="54" font-weight="700" letter-spacing="11">CONTROL GARANTIZADO</text>
  </g>
</svg>
